<svg width="18" height="16" viewBox="0 0 18 16" fill="none" xmlns="http://www.w3.org/2000/svg">
<path d="M2.505 0.365001C4.32652 0.121417 6.16225 -0.000519293 7.99999 1.66218e-06C9.86299 1.66218e-06 11.697 0.124002 13.495 0.365001C14.742 0.532001 15.675 1.473 15.93 2.633C15.7394 2.59745 15.5466 2.5744 15.353 2.564C13.7855 2.47838 12.2145 2.47838 10.647 2.564C8.22899 2.696 6.49999 4.72699 6.49999 6.99799V9.23799C6.49999 10.651 7.16999 11.973 8.25999 12.8L5.27999 15.78C5.17511 15.8847 5.04153 15.9561 4.89613 15.9849C4.75073 16.0138 4.60003 15.999 4.46307 15.9423C4.32611 15.8856 4.20902 15.7895 4.1266 15.6663C4.04418 15.5431 4.00012 15.3982 3.99999 15.25V11.807C3.499 11.759 3 11.701 2.505 11.635C1.033 11.438 0 10.162 0 8.71999V3.28C0 1.839 1.033 0.562001 2.505 0.365001Z" fill="#002855"/>
<path d="M13 3.99994C12.238 3.99994 11.48 4.01994 10.729 4.06194C9.157 4.14794 8 5.47194 8 6.99793V9.23793C8 10.7569 9.147 12.0769 10.71 12.1729C10.924 12.1859 11.138 12.1969 11.352 12.2069C11.552 12.2159 11.737 12.2969 11.87 12.4309L14.22 14.7809C14.3249 14.8857 14.4586 14.9571 14.6041 14.9859C14.7496 15.0148 14.9004 14.9999 15.0374 14.943C15.1744 14.8862 15.2915 14.79 15.3738 14.6666C15.4561 14.5433 15.5001 14.3982 15.5 14.2499V12.1799C16.953 11.9849 18 10.7169 18 9.26493V6.99793C18 5.47194 16.843 4.14794 15.271 4.06194C14.5147 4.02062 13.7574 3.99995 13 3.99994Z" fill="#F4A100"/>
</svg>
