<svg width="136" height="35" viewBox="0 0 136 35" fill="none" xmlns="http://www.w3.org/2000/svg">
<path d="M23.136 22V6.16H26.184V22H23.136ZM18.48 8.728V6.16H30.84V8.728H18.48ZM36.2179 22L32.5219 6.16H35.8339L38.4499 19.336H38.6899L41.5939 6.16H45.4819L48.4099 19.336H48.6259L51.2899 6.16H54.4339L50.6899 22H46.4179L43.6099 8.872H43.3939L40.5619 22H36.2179ZM56.8073 22V6.16H59.8793V22H56.8073ZM63.4401 22V6.16H67.4241L74.8881 17.968H75.1041L74.9361 6.16H77.9121V22H74.2401L66.4401 9.76H66.2241L66.3921 22H63.4401ZM84.8001 22V6.16H87.8481V22H84.8001ZM80.1441 8.728V6.16H92.5041V8.728H80.1441ZM91.7925 22L97.2645 6.16H101.657L107.105 22H103.817L99.6165 8.608H99.3045L95.0805 22H91.7925ZM94.6965 18.76V16.6H104.633V18.76H94.6965ZM109.354 22V6.16H112.378V22H109.354ZM110.05 22V19.408H119.266V22H110.05ZM121.378 22V6.16H124.402V13.384C125.25 13.064 126.05 12.648 126.802 12.136C127.554 11.624 128.226 11.048 128.818 10.408C129.426 9.752 129.938 9.064 130.354 8.344C130.786 7.624 131.106 6.896 131.314 6.16H134.746C134.506 7.008 134.154 7.832 133.69 8.632C133.226 9.416 132.674 10.152 132.034 10.84C131.41 11.512 130.746 12.112 130.042 12.64C129.338 13.152 128.618 13.568 127.882 13.888V14.2C128.666 14.2 129.362 14.296 129.97 14.488C130.578 14.664 131.114 14.936 131.578 15.304C132.058 15.672 132.474 16.136 132.826 16.696C133.178 17.256 133.498 17.904 133.786 18.64L134.962 22H131.53L130.762 19.312C130.506 18.48 130.178 17.8 129.778 17.272C129.378 16.744 128.866 16.36 128.242 16.12C127.618 15.864 126.81 15.736 125.818 15.736H124.402V22H121.378Z" fill="white"/>
<path d="M4.24277 32.13C3.76944 32.13 3.34277 32.0567 2.96277 31.91C2.58944 31.7633 2.27277 31.5467 2.01277 31.26C1.75277 30.9733 1.55277 30.6233 1.41277 30.21C1.27944 29.79 1.21277 29.3133 1.21277 28.78C1.21277 28.24 1.28277 27.7567 1.42277 27.33C1.56277 26.8967 1.76277 26.5267 2.02277 26.22C2.28277 25.9133 2.59611 25.68 2.96277 25.52C3.32944 25.3533 3.73944 25.27 4.19277 25.27C4.53944 25.27 4.85944 25.32 5.15277 25.42C5.44611 25.5133 5.69944 25.6533 5.91277 25.84C6.13277 26.02 6.30277 26.24 6.42277 26.5C6.54277 26.76 6.60611 27.05 6.61277 27.37L5.74277 27.59C5.74944 27.25 5.67944 26.97 5.53277 26.75C5.38611 26.5233 5.19277 26.3533 4.95277 26.24C4.71277 26.1267 4.45277 26.07 4.17277 26.07C3.91277 26.07 3.65944 26.1233 3.41277 26.23C3.17277 26.33 2.95944 26.49 2.77277 26.71C2.58611 26.9233 2.43611 27.2 2.32277 27.54C2.21611 27.8733 2.16277 28.2767 2.16277 28.75C2.16277 29.3567 2.24944 29.8467 2.42277 30.22C2.60277 30.5933 2.85277 30.87 3.17277 31.05C3.49277 31.2233 3.86277 31.31 4.28277 31.31C4.68944 31.31 5.01611 31.2367 5.26277 31.09C5.50944 30.9367 5.69277 30.7267 5.81277 30.46C5.93277 30.1867 6.00277 29.8733 6.02277 29.52L6.84277 29.67C6.83611 30.0033 6.78277 30.32 6.68277 30.62C6.58277 30.92 6.42944 31.1833 6.22277 31.41C6.01611 31.6367 5.74944 31.8133 5.42277 31.94C5.09611 32.0667 4.70277 32.13 4.24277 32.13ZM10.6629 32.13C10.1696 32.13 9.73293 32.0233 9.35293 31.81C8.9796 31.59 8.68626 31.2767 8.47293 30.87C8.26626 30.4633 8.16293 29.97 8.16293 29.39C8.16293 28.79 8.27293 28.2933 8.49293 27.9C8.7196 27.5 9.0196 27.2 9.39293 27C9.76626 26.8 10.1829 26.7 10.6429 26.7C11.1229 26.7 11.5496 26.8067 11.9229 27.02C12.3029 27.2267 12.6029 27.5333 12.8229 27.94C13.0429 28.34 13.1529 28.8367 13.1529 29.43C13.1529 30.0233 13.0429 30.52 12.8229 30.92C12.6096 31.32 12.3129 31.6233 11.9329 31.83C11.5596 32.03 11.1363 32.13 10.6629 32.13ZM10.7029 31.38C11.0229 31.38 11.2963 31.3033 11.5229 31.15C11.7563 30.99 11.9329 30.7667 12.0529 30.48C12.1796 30.1933 12.2429 29.8533 12.2429 29.46C12.2429 29.0533 12.1763 28.7033 12.0429 28.41C11.9163 28.11 11.7329 27.88 11.4929 27.72C11.2529 27.5533 10.9629 27.47 10.6229 27.47C10.3163 27.47 10.0463 27.5433 9.81293 27.69C9.5796 27.8367 9.3996 28.0533 9.27293 28.34C9.14626 28.62 9.08293 28.9633 9.08293 29.37C9.08293 29.9967 9.22626 30.49 9.51293 30.85C9.80626 31.2033 10.2029 31.38 10.7029 31.38ZM14.8488 32V28.79V26.83H15.6688L15.5788 28.47H15.7488C15.8421 28.0633 15.9655 27.73 16.1188 27.47C16.2788 27.21 16.4788 27.0167 16.7188 26.89C16.9588 26.7633 17.2388 26.7 17.5588 26.7C18.1321 26.7 18.5655 26.9067 18.8588 27.32C19.1588 27.7267 19.3088 28.3367 19.3088 29.15V32H18.3888V29.23C18.3888 28.6433 18.2955 28.21 18.1088 27.93C17.9288 27.65 17.6621 27.51 17.3088 27.51C16.9888 27.51 16.7155 27.61 16.4888 27.81C16.2688 28.01 16.0955 28.2733 15.9688 28.6C15.8421 28.9267 15.7721 29.28 15.7588 29.66V32H14.8488ZM23.4258 32.13C23.0192 32.13 22.6592 32.07 22.3458 31.95C22.0392 31.8233 21.7792 31.6433 21.5658 31.41C21.3525 31.1767 21.1925 30.9 21.0858 30.58C20.9792 30.26 20.9258 29.9 20.9258 29.5C20.9258 29.0933 20.9792 28.72 21.0858 28.38C21.1925 28.04 21.3492 27.7433 21.5558 27.49C21.7625 27.2367 22.0158 27.0433 22.3158 26.91C22.6158 26.77 22.9592 26.7 23.3458 26.7C23.6858 26.7 23.9958 26.7567 24.2758 26.87C24.5558 26.9833 24.7925 27.16 24.9858 27.4C25.1858 27.6333 25.3358 27.93 25.4358 28.29C25.5358 28.6433 25.5758 29.06 25.5558 29.54L21.4958 29.57V28.95L25.0058 28.92L24.6958 29.34C24.7292 28.92 24.6892 28.5733 24.5758 28.3C24.4625 28.0267 24.2992 27.82 24.0858 27.68C23.8792 27.54 23.6325 27.47 23.3458 27.47C23.0392 27.47 22.7692 27.55 22.5358 27.71C22.3025 27.87 22.1225 28.1 21.9958 28.4C21.8758 28.7 21.8158 29.0633 21.8158 29.49C21.8158 30.1033 21.9525 30.5733 22.2258 30.9C22.4992 31.22 22.9058 31.38 23.4458 31.38C23.6525 31.38 23.8325 31.3567 23.9858 31.31C24.1458 31.2567 24.2792 31.1867 24.3858 31.1C24.4992 31.0067 24.5892 30.9 24.6558 30.78C24.7292 30.66 24.7858 30.53 24.8258 30.39L25.6258 30.58C25.5658 30.82 25.4725 31.0367 25.3458 31.23C25.2258 31.4167 25.0725 31.5767 24.8858 31.71C24.7058 31.8433 24.4958 31.9467 24.2558 32.02C24.0158 32.0933 23.7392 32.13 23.4258 32.13ZM29.4899 32.13C29.0366 32.13 28.6499 32.0567 28.3299 31.91C28.0165 31.7633 27.7599 31.5667 27.5599 31.32C27.3665 31.0733 27.2232 30.79 27.1299 30.47C27.0432 30.15 26.9999 29.8167 26.9999 29.47C26.9999 29.09 27.0499 28.7333 27.1499 28.4C27.2499 28.0667 27.3999 27.7733 27.5999 27.52C27.8065 27.26 28.0599 27.06 28.3599 26.92C28.6665 26.7733 29.0232 26.7 29.4299 26.7C29.8232 26.7 30.1699 26.77 30.4699 26.91C30.7699 27.0433 31.0132 27.2333 31.1999 27.48C31.3932 27.7267 31.5166 28.02 31.5699 28.36L30.6999 28.6C30.6866 28.4133 30.6299 28.2333 30.5299 28.06C30.4366 27.8867 30.2966 27.7467 30.1099 27.64C29.9232 27.5267 29.6932 27.47 29.4199 27.47C29.1599 27.47 28.9366 27.52 28.7499 27.62C28.5699 27.72 28.4165 27.86 28.2899 28.04C28.1699 28.22 28.0765 28.43 28.0099 28.67C27.9499 28.91 27.9199 29.17 27.9199 29.45C27.9199 29.8367 27.9732 30.1733 28.0799 30.46C28.1932 30.7467 28.3665 30.97 28.5999 31.13C28.8332 31.29 29.1332 31.37 29.4999 31.37C29.7732 31.37 30.0066 31.3233 30.1999 31.23C30.3932 31.13 30.5466 30.9933 30.6599 30.82C30.7732 30.64 30.8466 30.43 30.8799 30.19L31.7199 30.38C31.6732 30.6667 31.5866 30.92 31.4599 31.14C31.3332 31.36 31.1732 31.5433 30.9799 31.69C30.7866 31.83 30.5632 31.9367 30.3099 32.01C30.0632 32.09 29.7899 32.13 29.4899 32.13ZM34.7682 32.1C34.2882 32.1 33.9315 31.97 33.6982 31.71C33.4648 31.45 33.3482 31.0533 33.3482 30.52V27.59H32.5682L32.5782 26.83H33.0682C33.2348 26.83 33.3548 26.8 33.4282 26.74C33.5082 26.68 33.5548 26.58 33.5682 26.44L33.6682 25.66H34.2282V26.83H35.7182V27.6H34.2282V30.5C34.2282 30.7667 34.2882 30.96 34.4082 31.08C34.5348 31.1933 34.7148 31.25 34.9482 31.25C35.0748 31.25 35.2048 31.2333 35.3382 31.2C35.4782 31.1667 35.6148 31.1 35.7482 31V31.91C35.5548 31.9833 35.3748 32.0333 35.2082 32.06C35.0482 32.0867 34.9015 32.1 34.7682 32.1ZM39.4305 32.13C39.0238 32.13 38.6638 32.07 38.3505 31.95C38.0438 31.8233 37.7838 31.6433 37.5705 31.41C37.3572 31.1767 37.1972 30.9 37.0905 30.58C36.9838 30.26 36.9305 29.9 36.9305 29.5C36.9305 29.0933 36.9838 28.72 37.0905 28.38C37.1972 28.04 37.3538 27.7433 37.5605 27.49C37.7672 27.2367 38.0205 27.0433 38.3205 26.91C38.6205 26.77 38.9638 26.7 39.3505 26.7C39.6905 26.7 40.0005 26.7567 40.2805 26.87C40.5605 26.9833 40.7972 27.16 40.9905 27.4C41.1905 27.6333 41.3405 27.93 41.4405 28.29C41.5405 28.6433 41.5805 29.06 41.5605 29.54L37.5005 29.57V28.95L41.0105 28.92L40.7005 29.34C40.7338 28.92 40.6938 28.5733 40.5805 28.3C40.4672 28.0267 40.3038 27.82 40.0905 27.68C39.8838 27.54 39.6372 27.47 39.3505 27.47C39.0438 27.47 38.7738 27.55 38.5405 27.71C38.3072 27.87 38.1272 28.1 38.0005 28.4C37.8805 28.7 37.8205 29.0633 37.8205 29.49C37.8205 30.1033 37.9572 30.5733 38.2305 30.9C38.5038 31.22 38.9105 31.38 39.4505 31.38C39.6572 31.38 39.8372 31.3567 39.9905 31.31C40.1505 31.2567 40.2838 31.1867 40.3905 31.1C40.5038 31.0067 40.5938 30.9 40.6605 30.78C40.7338 30.66 40.7905 30.53 40.8305 30.39L41.6305 30.58C41.5705 30.82 41.4772 31.0367 41.3505 31.23C41.2305 31.4167 41.0772 31.5767 40.8905 31.71C40.7105 31.8433 40.5005 31.9467 40.2605 32.02C40.0205 32.0933 39.7438 32.13 39.4305 32.13ZM43.3743 32.12C43.161 32.12 43.001 32.0733 42.8943 31.98C42.7877 31.8867 42.7343 31.7367 42.7343 31.53C42.7343 31.33 42.7877 31.1833 42.8943 31.09C43.001 30.9967 43.161 30.95 43.3743 30.95C43.5943 30.95 43.7577 30.9967 43.8643 31.09C43.9777 31.1833 44.0343 31.3333 44.0343 31.54C44.0343 31.9267 43.8143 32.12 43.3743 32.12ZM51.2412 32.13C50.7679 32.13 50.3412 32.0567 49.9612 31.91C49.5879 31.7633 49.2712 31.5467 49.0112 31.26C48.7512 30.9733 48.5512 30.6233 48.4112 30.21C48.2779 29.79 48.2112 29.3133 48.2112 28.78C48.2112 28.24 48.2812 27.7567 48.4212 27.33C48.5612 26.8967 48.7612 26.5267 49.0212 26.22C49.2812 25.9133 49.5945 25.68 49.9612 25.52C50.3279 25.3533 50.7379 25.27 51.1912 25.27C51.5379 25.27 51.8579 25.32 52.1512 25.42C52.4445 25.5133 52.6979 25.6533 52.9112 25.84C53.1312 26.02 53.3012 26.24 53.4212 26.5C53.5412 26.76 53.6045 27.05 53.6112 27.37L52.7412 27.59C52.7479 27.25 52.6779 26.97 52.5312 26.75C52.3845 26.5233 52.1912 26.3533 51.9512 26.24C51.7112 26.1267 51.4512 26.07 51.1712 26.07C50.9112 26.07 50.6579 26.1233 50.4112 26.23C50.1712 26.33 49.9579 26.49 49.7712 26.71C49.5845 26.9233 49.4345 27.2 49.3212 27.54C49.2145 27.8733 49.1612 28.2767 49.1612 28.75C49.1612 29.3567 49.2479 29.8467 49.4212 30.22C49.6012 30.5933 49.8512 30.87 50.1712 31.05C50.4912 31.2233 50.8612 31.31 51.2812 31.31C51.6879 31.31 52.0145 31.2367 52.2612 31.09C52.5079 30.9367 52.6912 30.7267 52.8112 30.46C52.9312 30.1867 53.0012 29.8733 53.0212 29.52L53.8412 29.67C53.8345 30.0033 53.7812 30.32 53.6812 30.62C53.5812 30.92 53.4279 31.1833 53.2212 31.41C53.0145 31.6367 52.7479 31.8133 52.4212 31.94C52.0945 32.0667 51.7012 32.13 51.2412 32.13ZM57.6614 32.13C57.168 32.13 56.7314 32.0233 56.3514 31.81C55.978 31.59 55.6847 31.2767 55.4714 30.87C55.2647 30.4633 55.1614 29.97 55.1614 29.39C55.1614 28.79 55.2714 28.2933 55.4914 27.9C55.718 27.5 56.018 27.2 56.3914 27C56.7647 26.8 57.1814 26.7 57.6414 26.7C58.1214 26.7 58.548 26.8067 58.9214 27.02C59.3014 27.2267 59.6014 27.5333 59.8214 27.94C60.0414 28.34 60.1514 28.8367 60.1514 29.43C60.1514 30.0233 60.0414 30.52 59.8214 30.92C59.608 31.32 59.3114 31.6233 58.9314 31.83C58.558 32.03 58.1347 32.13 57.6614 32.13ZM57.7014 31.38C58.0214 31.38 58.2947 31.3033 58.5214 31.15C58.7547 30.99 58.9314 30.7667 59.0514 30.48C59.178 30.1933 59.2414 29.8533 59.2414 29.46C59.2414 29.0533 59.1747 28.7033 59.0414 28.41C58.9147 28.11 58.7314 27.88 58.4914 27.72C58.2514 27.5533 57.9614 27.47 57.6214 27.47C57.3147 27.47 57.0447 27.5433 56.8114 27.69C56.578 27.8367 56.398 28.0533 56.2714 28.34C56.1447 28.62 56.0814 28.9633 56.0814 29.37C56.0814 29.9967 56.2247 30.49 56.5114 30.85C56.8047 31.2033 57.2014 31.38 57.7014 31.38ZM61.8472 32V28.79V26.83H62.6672L62.5772 28.47H62.7472C62.8406 28.0633 62.9639 27.73 63.1172 27.47C63.2772 27.21 63.4772 27.0167 63.7172 26.89C63.9572 26.7633 64.2372 26.7 64.5572 26.7C65.1306 26.7 65.5639 26.9067 65.8572 27.32C66.1572 27.7267 66.3072 28.3367 66.3072 29.15V32H65.3872V29.23C65.3872 28.6433 65.2939 28.21 65.1072 27.93C64.9272 27.65 64.6606 27.51 64.3072 27.51C63.9872 27.51 63.7139 27.61 63.4872 27.81C63.2672 28.01 63.0939 28.2733 62.9672 28.6C62.8406 28.9267 62.7706 29.28 62.7572 29.66V32H61.8472ZM69.3371 32L67.4871 26.84H68.4971L69.9071 31.23H70.0471L71.4471 26.84H72.4371L70.5971 32H69.3371ZM75.9317 32.13C75.525 32.13 75.165 32.07 74.8517 31.95C74.545 31.8233 74.285 31.6433 74.0717 31.41C73.8583 31.1767 73.6983 30.9 73.5917 30.58C73.485 30.26 73.4317 29.9 73.4317 29.5C73.4317 29.0933 73.485 28.72 73.5917 28.38C73.6983 28.04 73.855 27.7433 74.0617 27.49C74.2683 27.2367 74.5217 27.0433 74.8217 26.91C75.1217 26.77 75.465 26.7 75.8517 26.7C76.1917 26.7 76.5017 26.7567 76.7817 26.87C77.0617 26.9833 77.2983 27.16 77.4917 27.4C77.6917 27.6333 77.8417 27.93 77.9417 28.29C78.0417 28.6433 78.0817 29.06 78.0617 29.54L74.0017 29.57V28.95L77.5117 28.92L77.2017 29.34C77.235 28.92 77.195 28.5733 77.0817 28.3C76.9683 28.0267 76.805 27.82 76.5917 27.68C76.385 27.54 76.1383 27.47 75.8517 27.47C75.545 27.47 75.275 27.55 75.0417 27.71C74.8083 27.87 74.6283 28.1 74.5017 28.4C74.3817 28.7 74.3217 29.0633 74.3217 29.49C74.3217 30.1033 74.4583 30.5733 74.7317 30.9C75.005 31.22 75.4117 31.38 75.9517 31.38C76.1583 31.38 76.3383 31.3567 76.4917 31.31C76.6517 31.2567 76.785 31.1867 76.8917 31.1C77.005 31.0067 77.095 30.9 77.1617 30.78C77.235 30.66 77.2917 30.53 77.3317 30.39L78.1317 30.58C78.0717 30.82 77.9783 31.0367 77.8517 31.23C77.7317 31.4167 77.5783 31.5767 77.3917 31.71C77.2117 31.8433 77.0017 31.9467 76.7617 32.02C76.5217 32.0933 76.245 32.13 75.9317 32.13ZM79.7562 32V29.2V26.83H80.5762L80.4962 28.63H80.6662C80.7262 28.2367 80.8195 27.8967 80.9462 27.61C81.0729 27.3233 81.2395 27.1 81.4462 26.94C81.6595 26.78 81.9229 26.7 82.2362 26.7C82.3029 26.7 82.3795 26.7067 82.4662 26.72C82.5529 26.7267 82.6529 26.75 82.7662 26.79L82.7162 27.74C82.6162 27.7 82.5162 27.6733 82.4162 27.66C82.3162 27.64 82.2195 27.63 82.1262 27.63C81.8662 27.63 81.6395 27.7133 81.4462 27.88C81.2595 28.0467 81.1029 28.2733 80.9762 28.56C80.8495 28.84 80.7462 29.1567 80.6662 29.51V32H79.7562ZM86.0508 32.13C85.6908 32.13 85.3708 32.09 85.0908 32.01C84.8108 31.9367 84.5775 31.83 84.3908 31.69C84.2042 31.5433 84.0608 31.37 83.9608 31.17C83.8608 30.97 83.8075 30.75 83.8008 30.51L84.5708 30.31C84.5575 30.53 84.6108 30.7233 84.7308 30.89C84.8575 31.05 85.0342 31.1733 85.2608 31.26C85.4942 31.3467 85.7742 31.39 86.1008 31.39C86.4942 31.39 86.7975 31.3233 87.0108 31.19C87.2308 31.0567 87.3408 30.8733 87.3408 30.64C87.3408 30.4533 87.2808 30.31 87.1608 30.21C87.0408 30.1033 86.8742 30.02 86.6608 29.96C86.4542 29.8933 86.2075 29.8333 85.9208 29.78C85.6808 29.7267 85.4408 29.6667 85.2008 29.6C84.9608 29.5333 84.7408 29.4467 84.5408 29.34C84.3475 29.2267 84.1908 29.08 84.0708 28.9C83.9508 28.72 83.8908 28.4967 83.8908 28.23C83.8908 27.9167 83.9742 27.6467 84.1408 27.42C84.3075 27.1933 84.5442 27.0167 84.8508 26.89C85.1575 26.7633 85.5242 26.7 85.9508 26.7C86.3775 26.7 86.7408 26.7667 87.0408 26.9C87.3408 27.0267 87.5775 27.2067 87.7508 27.44C87.9242 27.6733 88.0208 27.9467 88.0408 28.26L87.2508 28.46C87.2442 28.24 87.1842 28.0533 87.0708 27.9C86.9642 27.7467 86.8108 27.6333 86.6108 27.56C86.4108 27.48 86.1775 27.44 85.9108 27.44C85.5575 27.44 85.2775 27.5067 85.0708 27.64C84.8642 27.7733 84.7608 27.9567 84.7608 28.19C84.7608 28.3633 84.8208 28.5033 84.9408 28.61C85.0675 28.7167 85.2375 28.8 85.4508 28.86C85.6642 28.92 85.9008 28.98 86.1608 29.04C86.4275 29.0933 86.6808 29.1533 86.9208 29.22C87.1675 29.2867 87.3875 29.3733 87.5808 29.48C87.7742 29.5867 87.9275 29.73 88.0408 29.91C88.1542 30.0833 88.2108 30.3067 88.2108 30.58C88.2108 30.92 88.1208 31.2067 87.9408 31.44C87.7608 31.6667 87.5075 31.84 87.1808 31.96C86.8608 32.0733 86.4842 32.13 86.0508 32.13ZM92.0731 32.13C91.6664 32.13 91.3064 32.07 90.9931 31.95C90.6864 31.8233 90.4264 31.6433 90.2131 31.41C89.9998 31.1767 89.8398 30.9 89.7331 30.58C89.6264 30.26 89.5731 29.9 89.5731 29.5C89.5731 29.0933 89.6264 28.72 89.7331 28.38C89.8398 28.04 89.9964 27.7433 90.2031 27.49C90.4098 27.2367 90.6631 27.0433 90.9631 26.91C91.2631 26.77 91.6064 26.7 91.9931 26.7C92.3331 26.7 92.6431 26.7567 92.9231 26.87C93.2031 26.9833 93.4398 27.16 93.6331 27.4C93.8331 27.6333 93.9831 27.93 94.0831 28.29C94.1831 28.6433 94.2231 29.06 94.2031 29.54L90.1431 29.57V28.95L93.6531 28.92L93.3431 29.34C93.3764 28.92 93.3364 28.5733 93.2231 28.3C93.1098 28.0267 92.9464 27.82 92.7331 27.68C92.5264 27.54 92.2798 27.47 91.9931 27.47C91.6864 27.47 91.4164 27.55 91.1831 27.71C90.9498 27.87 90.7698 28.1 90.6431 28.4C90.5231 28.7 90.4631 29.0633 90.4631 29.49C90.4631 30.1033 90.5998 30.5733 90.8731 30.9C91.1464 31.22 91.5531 31.38 92.0931 31.38C92.2998 31.38 92.4798 31.3567 92.6331 31.31C92.7931 31.2567 92.9264 31.1867 93.0331 31.1C93.1464 31.0067 93.2364 30.9 93.3031 30.78C93.3764 30.66 93.4331 30.53 93.4731 30.39L94.2731 30.58C94.2131 30.82 94.1198 31.0367 93.9931 31.23C93.8731 31.4167 93.7198 31.5767 93.5331 31.71C93.3531 31.8433 93.1431 31.9467 92.9031 32.02C92.6631 32.0933 92.3864 32.13 92.0731 32.13ZM96.0169 32.12C95.8036 32.12 95.6436 32.0733 95.5369 31.98C95.4303 31.8867 95.3769 31.7367 95.3769 31.53C95.3769 31.33 95.4303 31.1833 95.5369 31.09C95.6436 30.9967 95.8036 30.95 96.0169 30.95C96.2369 30.95 96.4003 30.9967 96.5069 31.09C96.6203 31.1833 96.6769 31.3333 96.6769 31.54C96.6769 31.9267 96.4569 32.12 96.0169 32.12ZM101.094 32V25.4H102.014V32H101.094ZM101.564 32V31.21H105.724V32H101.564ZM101.564 29V28.26H105.254V29H101.564ZM101.564 26.18V25.4H105.714V26.18H101.564ZM108.465 32L106.615 26.84H107.625L109.035 31.23H109.175L110.575 26.84H111.565L109.725 32H108.465ZM115.059 32.13C114.566 32.13 114.129 32.0233 113.749 31.81C113.376 31.59 113.083 31.2767 112.869 30.87C112.663 30.4633 112.559 29.97 112.559 29.39C112.559 28.79 112.669 28.2933 112.889 27.9C113.116 27.5 113.416 27.2 113.789 27C114.163 26.8 114.579 26.7 115.039 26.7C115.519 26.7 115.946 26.8067 116.319 27.02C116.699 27.2267 116.999 27.5333 117.219 27.94C117.439 28.34 117.549 28.8367 117.549 29.43C117.549 30.0233 117.439 30.52 117.219 30.92C117.006 31.32 116.709 31.6233 116.329 31.83C115.956 32.03 115.533 32.13 115.059 32.13ZM115.099 31.38C115.419 31.38 115.693 31.3033 115.919 31.15C116.153 30.99 116.329 30.7667 116.449 30.48C116.576 30.1933 116.639 29.8533 116.639 29.46C116.639 29.0533 116.573 28.7033 116.439 28.41C116.313 28.11 116.129 27.88 115.889 27.72C115.649 27.5533 115.359 27.47 115.019 27.47C114.713 27.47 114.443 27.5433 114.209 27.69C113.976 27.8367 113.796 28.0533 113.669 28.34C113.543 28.62 113.479 28.9633 113.479 29.37C113.479 29.9967 113.623 30.49 113.909 30.85C114.203 31.2033 114.599 31.38 115.099 31.38ZM119.245 32V25H120.155V32H119.245ZM123.786 32.13C123.212 32.13 122.779 31.93 122.486 31.53C122.192 31.13 122.046 30.5333 122.046 29.74V26.83H122.966V29.66C122.966 30.22 123.052 30.6367 123.226 30.91C123.399 31.1833 123.672 31.32 124.046 31.32C124.252 31.32 124.436 31.27 124.596 31.17C124.762 31.07 124.909 30.9267 125.036 30.74C125.162 30.5533 125.266 30.3333 125.346 30.08C125.426 29.82 125.479 29.54 125.506 29.24V26.83H126.416V29.84V32H125.606L125.686 30.34H125.536C125.449 30.7533 125.326 31.0933 125.166 31.36C125.012 31.62 124.819 31.8133 124.586 31.94C124.352 32.0667 124.086 32.13 123.786 32.13ZM129.585 32.13C129.305 32.13 129.052 32.0767 128.825 31.97C128.598 31.8567 128.418 31.6933 128.285 31.48C128.152 31.26 128.085 30.9833 128.085 30.65C128.085 30.4033 128.128 30.1867 128.215 30C128.308 29.8133 128.448 29.6533 128.635 29.52C128.828 29.3867 129.075 29.2767 129.375 29.19C129.675 29.1033 130.042 29.03 130.475 28.97C130.722 28.9367 130.922 28.9033 131.075 28.87C131.235 28.8367 131.352 28.7833 131.425 28.71C131.498 28.63 131.535 28.5133 131.535 28.36C131.535 28.1067 131.448 27.8933 131.275 27.72C131.102 27.5467 130.828 27.46 130.455 27.46C130.262 27.46 130.065 27.4933 129.865 27.56C129.665 27.6267 129.488 27.74 129.335 27.9C129.188 28.0533 129.095 28.27 129.055 28.55L128.215 28.27C128.268 28.03 128.355 27.8133 128.475 27.62C128.602 27.4267 128.762 27.2633 128.955 27.13C129.148 26.99 129.372 26.8833 129.625 26.81C129.885 26.7367 130.172 26.7 130.485 26.7C130.918 26.7 131.278 26.7733 131.565 26.92C131.858 27.0667 132.075 27.2933 132.215 27.6C132.362 27.9 132.435 28.2867 132.435 28.76V29.91C132.435 30.1167 132.438 30.3433 132.445 30.59C132.458 30.83 132.475 31.0733 132.495 31.32C132.515 31.56 132.535 31.7867 132.555 32H131.715C131.695 31.7867 131.675 31.5733 131.655 31.36C131.642 31.1467 131.632 30.9333 131.625 30.72H131.495C131.395 30.9667 131.262 31.1967 131.095 31.41C130.928 31.6233 130.718 31.7967 130.465 31.93C130.218 32.0633 129.925 32.13 129.585 32.13ZM129.855 31.39C130.002 31.39 130.148 31.3667 130.295 31.32C130.448 31.2733 130.598 31.1967 130.745 31.09C130.898 30.9833 131.042 30.8467 131.175 30.68C131.315 30.5133 131.438 30.3133 131.545 30.08V29.08L131.805 29.13C131.698 29.2367 131.555 29.3167 131.375 29.37C131.202 29.4233 131.008 29.4667 130.795 29.5C130.582 29.5333 130.368 29.57 130.155 29.61C129.942 29.6433 129.745 29.6967 129.565 29.77C129.392 29.8367 129.252 29.9333 129.145 30.06C129.038 30.1867 128.985 30.36 128.985 30.58C128.985 30.8467 129.065 31.05 129.225 31.19C129.385 31.3233 129.595 31.39 129.855 31.39ZM134.52 32.12C134.306 32.12 134.146 32.0733 134.04 31.98C133.933 31.8867 133.88 31.7367 133.88 31.53C133.88 31.33 133.933 31.1833 134.04 31.09C134.146 30.9967 134.306 30.95 134.52 30.95C134.74 30.95 134.903 30.9967 135.01 31.09C135.123 31.1833 135.18 31.3333 135.18 31.54C135.18 31.9267 134.96 32.12 134.52 32.12Z" fill="white"/>
<path d="M2.505 6.365C4.32652 6.12142 6.16225 5.99948 7.99999 6C9.86299 6 11.697 6.124 13.495 6.365C14.742 6.532 15.675 7.473 15.93 8.633C15.7394 8.59745 15.5466 8.5744 15.353 8.564C13.7855 8.47838 12.2145 8.47838 10.647 8.564C8.22899 8.696 6.49999 10.727 6.49999 12.998V15.238C6.49999 16.651 7.16999 17.973 8.25999 18.8L5.27999 21.78C5.17511 21.8847 5.04153 21.9561 4.89613 21.9849C4.75073 22.0138 4.60003 21.999 4.46307 21.9423C4.32611 21.8856 4.20902 21.7895 4.1266 21.6663C4.04418 21.5431 4.00012 21.3982 3.99999 21.25V17.807C3.499 17.759 3 17.701 2.505 17.635C1.033 17.438 0 16.162 0 14.72V9.28C0 7.839 1.033 6.562 2.505 6.365Z" fill="white"/>
<path d="M13 9.99994C12.238 9.99994 11.48 10.0199 10.729 10.0619C9.157 10.1479 8 11.4719 8 12.9979V15.2379C8 16.7569 9.147 18.0769 10.71 18.1729C10.924 18.1859 11.138 18.1969 11.352 18.2069C11.552 18.2159 11.737 18.2969 11.87 18.4309L14.22 20.7809C14.3249 20.8857 14.4586 20.9571 14.6041 20.9859C14.7496 21.0148 14.9004 20.9999 15.0374 20.943C15.1744 20.8862 15.2915 20.79 15.3738 20.6666C15.4561 20.5433 15.5001 20.3982 15.5 20.2499V18.1799C16.953 17.9849 18 16.7169 18 15.2649V12.9979C18 11.4719 16.843 10.1479 15.271 10.0619C14.5147 10.0206 13.7574 9.99995 13 9.99994Z" fill="#F4A100"/>
</svg>
